<?xml version="1.0" standalone="no"?>
<!DOCTYPE svg PUBLIC "-//W3C//DTD SVG 20010904//EN"
 "http://www.w3.org/TR/2001/REC-SVG-20010904/DTD/svg10.dtd">
<svg version="1.0" xmlns="http://www.w3.org/2000/svg"
 width="200.000000pt" height="200.000000pt" viewBox="0 0 200.000000 200.000000"
 preserveAspectRatio="xMidYMid meet">
<metadata>
Created by potrace 1.15, written by Peter Selinger 2001-2017
</metadata>
<g transform="translate(0.000000,200.000000) scale(0.100000,-0.100000)"
fill="#000000" stroke="none">
<path d="M950 1880 c-28 -22 -61 -25 -91 -9 -25 13 -49 5 -83 -26 -22 -21 -32
-23 -79 -18 -52 5 -55 5 -77 -28 -30 -43 -39 -49 -73 -49 -35 0 -67 -16 -67
-34 0 -27 -37 -59 -76 -65 -36 -6 -40 -9 -55 -56 -13 -38 -24 -54 -49 -67 -41
-21 -50 -34 -50 -75 0 -18 -7 -38 -16 -45 -53 -42 -75 -69 -70 -85 19 -64 18
-70 -13 -102 -35 -36 -35 -35 -19 -96 11 -41 10 -46 -10 -68 -29 -31 -30 -87
-1 -113 21 -19 21 -36 4 -105 -5 -21 -1 -33 24 -58 33 -34 36 -46 22 -84 -14
-36 -4 -59 39 -89 33 -23 39 -33 42 -69 3 -39 7 -45 43 -63 33 -17 42 -29 50
-63 13 -52 17 -56 68 -68 33 -8 46 -18 59 -44 21 -41 34 -51 73 -51 38 0 48
-7 68 -46 19 -37 52 -48 95 -33 31 11 72 -1 72 -21 0 -23 41 -32 90 -19 44 11
50 11 75 -9 36 -28 86 -29 111 -1 19 21 36 21 105 4 21 -5 34 0 62 25 34 29
39 31 70 21 44 -15 70 -4 99 39 20 29 31 36 68 40 40 4 47 9 66 45 16 33 28
42 62 50 52 13 63 24 71 72 5 31 13 41 43 55 37 18 44 30 50 88 2 16 16 34 41
49 43 28 54 57 38 101 -9 27 -7 34 19 64 33 37 36 53 18 103 -10 29 -9 36 9
61 34 47 36 65 7 107 -26 38 -26 46 -9 116 5 21 0 34 -25 62 -29 34 -31 39
-21 70 15 44 4 70 -39 99 -22 15 -36 33 -38 48 -6 58 -13 70 -50 88 -30 14
-39 25 -47 59 -13 53 -24 64 -72 72 -32 5 -41 13 -59 46 -18 36 -25 41 -64 45
-37 4 -48 11 -68 40 -28 42 -56 54 -94 41 -34 -12 -52 -6 -85 27 -25 25 -25
25 -113 6 -18 -4 -31 1 -44 15 -24 27 -73 27 -106 1z m248 -141 c256 -65 473
-283 544 -548 28 -106 28 -277 0 -383 -72 -269 -275 -473 -547 -549 -102 -29
-276 -31 -375 -5 -231 62 -403 201 -510 415 -74 149 -95 359 -51 524 79 299
335 524 645 567 80 11 203 2 294 -21z"/>
<path d="M871 1729 c-251 -49 -458 -218 -558 -454 -88 -207 -62 -476 64 -674
222 -347 688 -445 1031 -217 475 316 429 1029 -83 1276 -148 72 -312 97 -454
69z m169 -244 c3 -11 26 -40 53 -64 48 -44 57 -67 35 -89 -7 -7 -18 -34 -23
-60 l-10 -47 -90 0 -90 0 -9 45 c-5 25 -18 51 -28 58 -29 21 -21 47 31 94 26
24 52 54 55 66 6 19 14 23 39 20 21 -2 33 -9 37 -23z m-126 -368 c7 -28 -4
-67 -33 -124 -25 -49 -25 -53 -8 -53 7 0 17 15 22 33 12 37 55 64 82 49 21
-12 49 12 58 50 9 34 40 62 60 55 18 -7 21 -72 4 -83 -8 -4 -7 -9 2 -15 23
-14 28 -10 26 18 -2 22 3 29 21 31 17 3 22 -2 22 -17 0 -12 -4 -21 -8 -21 -4
0 -9 -23 -10 -51 -1 -31 2 -48 8 -44 5 3 10 17 10 30 0 30 29 60 43 46 7 -7
16 -7 29 0 29 16 41 1 34 -43 -7 -46 8 -44 17 2 5 20 15 34 32 40 31 12 65 -2
65 -26 0 -11 6 -13 20 -9 16 5 20 2 20 -14 0 -14 -6 -21 -19 -21 -11 0 -22 -9
-26 -19 -7 -24 -24 -29 -95 -27 -53 1 -55 2 -58 31 l-4 30 -12 -30 c-12 -29
-14 -30 -87 -32 -40 -1 -79 3 -86 9 -7 5 -18 6 -25 2 -7 -5 -50 -9 -95 -11
-100 -2 -108 5 -106 88 3 80 33 149 66 149 18 0 27 -7 31 -23z m-126 -13 c46
-32 20 -114 -43 -130 -20 -5 -26 -14 -31 -45 -15 -95 -104 -59 -104 41 0 107
105 186 178 134z m-199 -268 c20 -21 17 -65 -7 -89 l-21 -20 20 -29 c23 -31
39 -29 39 6 0 55 82 77 88 24 2 -18 -4 -31 -20 -42 -17 -12 -19 -16 -6 -16 20
0 44 22 63 61 18 35 45 39 45 7 1 -33 24 -60 38 -46 17 17 15 35 -5 43 -16 6
-16 8 -3 18 9 7 22 30 30 51 17 43 39 62 64 53 18 -7 21 -48 6 -78 -7 -13 -7
-19 0 -19 5 0 10 -7 10 -15 0 -9 -10 -15 -26 -15 -22 0 -25 -4 -22 -27 4 -39
25 -39 41 -1 20 47 40 61 77 53 31 -7 31 -8 25 -48 -9 -49 5 -42 20 11 7 23
18 38 29 40 16 3 17 -1 12 -40 l-6 -43 20 43 c26 57 53 58 44 0 -5 -30 -4 -39
4 -34 7 4 12 16 12 26 0 29 11 50 26 50 8 0 14 -7 14 -16 0 -14 2 -14 16 1 22
22 49 15 48 -13 -1 -22 0 -22 28 5 24 23 32 25 56 17 23 -8 27 -14 24 -43 -3
-22 0 -31 7 -27 6 4 11 16 11 26 0 32 11 50 32 50 15 0 18 -4 14 -17 -6 -15
-5 -15 13 1 10 9 25 16 33 15 35 -4 46 3 52 33 8 38 33 68 57 68 25 0 33 -35
15 -70 -13 -27 -13 -30 1 -30 25 0 8 -25 -20 -28 -21 -3 -27 -9 -27 -27 0 -32
16 -40 45 -21 13 9 27 16 30 16 11 0 4 -24 -12 -42 -18 -20 -78 -25 -88 -8 -5
8 -11 7 -20 0 -25 -21 -59 -8 -66 25 l-5 30 -8 -32 -8 -33 -74 1 c-55 1 -77 5
-81 15 -3 8 -12 14 -19 14 -8 0 -19 10 -23 23 -9 22 -9 22 -20 -6 -6 -16 -11
-32 -11 -37 0 -10 -339 -10 -345 0 -3 4 -25 0 -51 -9 -42 -15 -46 -15 -58 1
-8 11 -17 14 -26 8 -8 -5 -47 -9 -87 -9 l-72 0 -22 37 c-12 20 -23 33 -25 27
-1 -5 -5 -22 -8 -37 -5 -23 -12 -28 -36 -28 -87 0 -77 165 13 206 36 16 84 11
106 -10z"/>
</g>
</svg>
